<svg width="98" height="88" viewBox="0 0 98 88" fill="none" xmlns="http://www.w3.org/2000/svg">
<path d="M67.5806 2L30.2473 2C28.6105 2.00168 27.003 2.43373 25.586 3.25282C24.169 4.07191 22.9923 5.24923 22.1739 6.66667L3.50727 39.3333C2.68809 40.7522 2.25684 42.3617 2.25684 44C2.25684 45.6383 2.68809 47.2478 3.50727 48.6667L22.1739 81.3333C22.9923 82.7508 24.169 83.9281 25.586 84.7472C27.003 85.5663 28.6105 85.9983 30.2473 86L67.5806 86C69.2173 85.9983 70.8248 85.5663 72.2418 84.7472C73.6589 83.9281 74.8356 82.7508 75.6539 81.3333L94.3206 48.6667C95.1398 47.2478 95.571 45.6383 95.571 44C95.571 42.3617 95.1398 40.7522 94.3206 39.3333L75.6539 6.66667C74.8356 5.24923 73.6589 4.07191 72.2418 3.25282C70.8248 2.43373 69.2173 2.00168 67.5806 2Z" stroke="url(#paint0_linear_13_82)" stroke-width="3.5" stroke-linecap="round" stroke-linejoin="round"/>
<path fill-rule="evenodd" clip-rule="evenodd" d="M43.518 31.1824C46.3199 31.8734 47.9805 33.5514 48.5527 36.2698C48.6037 36.5126 48.6407 37.1667 48.6388 37.7938C48.6361 38.6792 48.6067 38.9977 48.4876 39.435C48.0924 40.8854 47.1952 41.9054 45.8673 42.4141C45.5456 42.5374 45.2825 42.6602 45.2825 42.6872C45.2825 42.7142 45.434 42.7568 45.6192 42.782C47.2411 43.0021 48.5206 44.1789 49.1354 46.0161C49.4288 46.8931 49.547 47.7705 49.543 49.0435C49.5361 51.1772 49.0805 52.6182 47.976 53.9995C47.221 54.9437 45.6821 55.8791 44.2193 56.2829C42.7589 56.6861 42.8084 56.6839 35.1109 56.6839H28.0227L28.0044 43.9251C27.9945 36.9077 28.0019 31.1253 28.0209 31.0752C28.0489 31.0016 29.4811 30.9887 35.4818 31.0081C42.7703 31.0315 42.9193 31.0348 43.518 31.1824ZM65.5194 34.0724V35.6319H60.2387H54.9579L54.9387 34.1452C54.9282 33.3275 54.9352 32.6176 54.9544 32.5675C54.9824 32.4945 56.0239 32.4803 60.2543 32.4949L65.5194 32.513V34.0724ZM33.9737 35.6143C33.9549 35.6631 33.948 36.947 33.9582 38.4673L33.9768 41.2316H37.8753C41.7646 41.2316 41.7745 41.2312 42.0675 41.0745C42.7829 40.6919 43.1353 39.936 43.2064 38.6322C43.2956 36.9939 42.7907 35.9298 41.7818 35.6302C41.3003 35.4873 34.0282 35.4724 33.9737 35.6143ZM62.5424 37.6848C66.2496 38.3452 68.582 40.8104 69.2742 44.7997C69.4164 45.6195 69.5101 47.2439 69.4588 48.0008L69.4179 48.6033L62.7904 48.6388L56.1629 48.6742L56.1751 49.3121C56.1891 50.0409 56.4023 50.7664 56.7716 51.3419C57.2616 52.1055 58.1836 52.7273 59.2463 53.0109C59.8453 53.1707 61.3962 53.169 62.1458 53.0077C63.2629 52.7673 64.1202 52.1706 64.5019 51.3677C64.6132 51.1338 64.7042 50.8587 64.7042 50.7562C64.7043 50.6537 64.748 50.5337 64.8014 50.4894C64.8704 50.4321 65.5221 50.4141 67.0519 50.4275L69.2053 50.4463L69.2287 50.8007C69.2416 50.9956 69.2141 51.3941 69.1676 51.6863C68.7883 54.0696 67.1254 55.8476 64.5004 56.6769C63.1964 57.0889 62.477 57.1802 60.5576 57.178C58.6351 57.1757 57.9018 57.0821 56.598 56.6726C53.5299 55.7091 51.5552 53.4071 50.8008 49.9146C50.6647 49.2842 50.6396 48.9536 50.6374 47.7527C50.6352 46.5331 50.6582 46.2212 50.8023 45.5199C51.6284 41.4988 53.9283 38.8232 57.346 37.9072C57.709 37.8099 58.2611 37.6969 58.5729 37.6562C58.8848 37.6154 59.2357 37.5684 59.3526 37.5518C59.8038 37.4878 61.935 37.5765 62.5424 37.6848ZM59.6187 41.3729C58.3029 41.6115 57.2044 42.4546 56.5707 43.7124C56.3014 44.2468 56.0345 45.1009 56.1123 45.1787C56.1447 45.2111 58.0353 45.2293 60.3137 45.2193L64.4562 45.201L64.437 44.7837C64.4104 44.2068 64.1192 43.3784 63.7424 42.8076C62.9333 41.5821 61.4026 41.0495 59.6187 41.3729ZM33.9749 45.3222C33.9556 45.3725 33.9481 46.9128 33.9583 48.7451L33.9768 52.0766L37.7648 52.0949C41.9168 52.115 42.0333 52.1057 42.7659 51.6941C43.2083 51.4455 43.6625 50.8999 43.8548 50.386C44.2491 49.332 44.1732 47.6773 43.6867 46.7261C43.4045 46.1743 43.0477 45.8277 42.4649 45.5396L41.9232 45.2719L37.9666 45.2513C34.787 45.2348 34.0031 45.2487 33.9749 45.3222Z" fill="#FCFCFC"/>
<defs>
<linearGradient id="paint0_linear_13_82" x1="19.2568" y1="-3.00001" x2="113.257" y2="106" gradientUnits="userSpaceOnUse">
<stop stop-color="#FCFCFC"/>
<stop offset="1" stop-color="#969292"/>
</linearGradient>
</defs>
</svg>
