<svg width="98" height="88" viewBox="0 0 98 88" fill="none" xmlns="http://www.w3.org/2000/svg">
<g clip-path="url(#clip0_13_74)">
<path d="M60.2655 55.266H55.5241V47.8406C55.5241 46.07 55.4925 43.7906 53.0581 43.7906C50.5886 43.7906 50.2108 45.7198 50.2108 47.7117V55.2655H45.4695V39.996H50.0211V42.0827H50.0849C50.5404 41.3038 51.1986 40.6631 51.9895 40.2287C52.7803 39.7944 53.6742 39.5826 54.5759 39.6161C59.3815 39.6161 60.2675 42.7771 60.2675 46.8893L60.2655 55.266ZM40.1195 37.9088C38.5999 37.9091 37.3677 36.6773 37.3675 35.1577C37.3672 33.6381 38.5989 32.406 40.1185 32.4057C41.6381 32.4053 42.8702 33.6371 42.8705 35.1567C42.8706 35.8865 42.5809 36.5864 42.065 37.1025C41.5491 37.6186 40.8493 37.9087 40.1195 37.9088ZM42.4902 55.2661H37.7439V39.996H42.4901V55.266L42.4902 55.2661ZM62.6293 28.0023H35.3614C34.0726 27.9878 33.0158 29.0202 33 30.309V57.6906C33.0153 58.98 34.072 60.0133 35.3612 59.9998H62.6293C63.9213 60.0158 64.9821 58.9825 65 57.6906V30.3068C64.9816 29.0156 63.9206 27.9833 62.6293 28.0002" fill="#0A66C2"/>
</g>
<path d="M67.6377 2L30.3044 2C28.6677 2.00168 27.0602 2.43373 25.6432 3.25282C24.2261 4.07191 23.0494 5.24923 22.2311 6.66667L3.56439 39.3333C2.74522 40.7522 2.31396 42.3617 2.31396 44C2.31396 45.6383 2.74522 47.2478 3.56439 48.6667L22.2311 81.3333C23.0494 82.7508 24.2261 83.9281 25.6432 84.7472C27.0602 85.5663 28.6677 85.9983 30.3044 86L67.6377 86C69.2745 85.9983 70.882 85.5663 72.299 84.7472C73.716 83.9281 74.8927 82.7508 75.7111 81.3333L94.3777 48.6667C95.1969 47.2478 95.6282 45.6383 95.6282 44C95.6282 42.3617 95.1969 40.7522 94.3777 39.3333L75.7111 6.66667C74.8927 5.24923 73.716 4.07191 72.299 3.25282C70.882 2.43373 69.2745 2.00168 67.6377 2Z" stroke="url(#paint0_linear_13_74)" stroke-width="3.5" stroke-linecap="round" stroke-linejoin="round"/>
<defs>
<linearGradient id="paint0_linear_13_74" x1="19.314" y1="-3.00001" x2="113.314" y2="106" gradientUnits="userSpaceOnUse">
<stop stop-color="#FCFCFC"/>
<stop offset="1" stop-color="#969292"/>
</linearGradient>
<clipPath id="clip0_13_74">
<rect width="32" height="32" fill="white" transform="translate(33 28)"/>
</clipPath>
</defs>
</svg>
