<svg width="98" height="88" viewBox="0 0 98 88" fill="none" xmlns="http://www.w3.org/2000/svg">
<path d="M53.3301 49.48L55.5701 47.24C55.8718 46.9421 56.2535 46.7381 56.6689 46.6529C57.0843 46.5677 57.5155 46.6049 57.9101 46.76L60.6401 47.85C61.0389 48.0119 61.3809 48.2882 61.6229 48.6441C61.8649 49.0001 61.9962 49.4197 62.0001 49.85V54.85C61.9978 55.1428 61.9363 55.4321 61.8192 55.7005C61.7021 55.9688 61.532 56.2107 61.319 56.4116C61.1059 56.6125 60.8545 56.7682 60.5797 56.8693C60.3049 56.9704 60.0125 57.0149 59.7201 57C40.5901 55.81 36.7301 39.61 36.0001 33.41C35.9662 33.1056 35.9972 32.7974 36.091 32.5058C36.1848 32.2141 36.3392 31.9456 36.5442 31.718C36.7492 31.4903 37.0001 31.3086 37.2803 31.1849C37.5605 31.0612 37.8638 30.9982 38.1701 31H43.0001C43.4311 31.0013 43.8519 31.1315 44.2083 31.3739C44.5647 31.6162 44.8405 31.9597 45.0001 32.36L46.0901 35.09C46.2504 35.4831 46.2913 35.9147 46.2077 36.3309C46.1241 36.747 45.9197 37.1293 45.6201 37.43L43.3801 39.67C43.3801 39.67 44.6701 48.4 53.3301 49.48Z" fill="#34A853"/>
<g style="mix-blend-mode:color-dodge">
<path d="M67.9522 2L30.6188 2C28.9821 2.00168 27.3746 2.43373 25.9576 3.25282C24.5406 4.07191 23.3639 5.24923 22.5455 6.66667L3.87885 39.3333C3.05968 40.7522 2.62842 42.3617 2.62842 44C2.62842 45.6383 3.05968 47.2478 3.87885 48.6667L22.5455 81.3333C23.3639 82.7508 24.5406 83.9281 25.9576 84.7472C27.3746 85.5663 28.9821 85.9983 30.6188 86L67.9522 86C69.5889 85.9983 71.1964 85.5663 72.6134 84.7472C74.0304 83.9281 75.2072 82.7508 76.0255 81.3333L94.6922 48.6667C95.5114 47.2478 95.9426 45.6383 95.9426 44C95.9426 42.3617 95.5114 40.7522 94.6922 39.3333L76.0255 6.66667C75.2072 5.24923 74.0304 4.07191 72.6134 3.25282C71.1964 2.43373 69.5889 2.00168 67.9522 2Z" stroke="#FCFCFC" stroke-width="3.5" stroke-linecap="round" stroke-linejoin="round"/>
</g>
</svg>
