<svg width="44" height="44" viewBox="0 0 44 44" fill="none" xmlns="http://www.w3.org/2000/svg">
<rect width="44" height="44" rx="8" fill="#3D73DD"/>
<path d="M32.8699 17.1224C32.843 16.9789 32.7589 16.8519 32.6363 16.7695L29.0999 14.3909C29.0461 14.3546 28.9862 14.328 28.9231 14.3121L12.9165 10.2865C12.7154 10.236 12.5024 10.2993 12.3634 10.4508C12.2244 10.6022 12.1824 10.8171 12.2543 11.0084L20.6297 33.3312C20.702 33.5234 20.877 33.6601 21.0839 33.6857C21.2907 33.7113 21.4949 33.6215 21.6132 33.4526L32.7807 17.5341C32.8648 17.414 32.897 17.2658 32.8699 17.1224ZM27.7538 15.1512L22.2852 21.1414L14.3168 11.772L27.7538 15.1512ZM20.836 30.7084L14.4176 13.6021L21.6917 22.1553L20.836 30.7084ZM21.9209 31.0807L22.7953 22.3406L30.6656 18.6154L21.9209 31.0807ZM24.5708 20.2816L28.8732 15.5685L31.209 17.1395L24.5708 20.2816Z" fill="white"/>
</svg>
