<svg width="76" height="76" viewBox="0 0 76 76" fill="none" xmlns="http://www.w3.org/2000/svg">
<rect width="76" height="76" rx="16" fill="#3E47A3"/>
<path d="M34.8802 9.15169C34.182 9.35338 33.0494 10.005 33.0494 10.2067C33.0494 10.2688 33.3442 10.5946 33.701 10.9514C34.4302 11.6806 36.0593 12.5184 37.5487 12.9063C38.1073 13.0615 38.9606 13.3717 39.4571 13.62L40.3414 14.0389V13.3097C40.3414 10.5015 37.5798 8.40697 34.8802 9.15169Z" fill="#FCFCFC"/>
<path d="M34.5233 16.0398C34.2751 16.1949 33.4993 16.4277 32.8167 16.5673L31.5755 16.8155L32.1495 17.0793C33.158 17.5137 34.244 17.281 34.8646 16.4897L35.1904 16.0863L35.4232 16.4587C35.9507 17.25 37.3005 17.5447 38.2159 17.0638L38.7123 16.8L37.6573 16.5983C37.0833 16.4897 36.292 16.2725 35.8886 16.0863C35.0508 15.714 35.1129 15.714 34.5233 16.0398Z" fill="#FCFCFC"/>
<path d="M32.5839 23.5497C32.5839 24.372 32.6304 24.6047 32.7856 24.5271C32.8786 24.4651 33.2355 24.2479 33.5768 24.0307L34.1664 23.6583L34.5077 23.9841C34.9421 24.403 35.4386 24.403 35.8265 23.9841L36.1368 23.6583L36.9125 24.1393L37.7038 24.6202V23.5342C37.7038 22.9291 37.6572 22.4481 37.6107 22.4481C37.5642 22.4481 37.2073 22.6343 36.835 22.8515L36.1368 23.2704L35.7799 22.9291C35.3455 22.5102 34.9421 22.5102 34.5077 22.9291L34.1664 23.2549L33.4682 22.8515C33.0959 22.6343 32.739 22.4481 32.6925 22.4481C32.6304 22.4481 32.5839 22.9446 32.5839 23.5497Z" fill="#FCFCFC"/>
<path d="M29.9774 23.3326C29.6671 23.4567 21.8321 39.2198 22.0027 39.3905C22.0803 39.4681 23.1043 39.4991 24.299 39.4836L26.4555 39.437L26.5021 38.4596C26.5486 37.5132 26.5331 37.4977 26.1452 37.4977C25.928 37.4977 25.7574 37.4201 25.7574 37.3425C25.7574 37.2029 27.4795 33.5259 29.2792 29.8178L29.6516 29.042L29.574 31.059C29.512 32.1605 29.4344 33.8982 29.3879 34.8912L29.2792 36.7219H30.0395C30.4894 36.7219 30.9549 36.8305 31.1566 36.9702C31.4979 37.2029 31.4979 37.2184 31.4979 42.0901V46.9618H28.8603V47.8772C28.8603 48.9322 28.9224 48.9787 30.1791 48.9787C30.8307 48.9787 31.0324 49.0408 31.0945 49.2425C31.141 49.3976 31.8392 53.3229 32.6615 57.9774C33.4838 62.6319 34.182 66.5571 34.2285 66.6968C34.2906 66.9295 34.756 67.1157 34.756 66.914C34.756 66.883 35.6714 62.8491 36.773 57.9619C37.89 53.0747 38.7899 49.0563 38.7899 49.0253C38.7899 48.9942 39.2709 48.9787 39.8449 48.9787C40.45 48.9787 41.0085 48.9012 41.1482 48.777C41.3809 48.6064 41.3654 47.7841 40.962 38.894C40.7137 33.5569 40.5121 29.0886 40.5121 28.9645C40.5121 28.6231 41.0085 29.6471 43.2117 34.4723C45.3372 39.1268 45.2751 38.9871 45.3837 38.863C45.5854 38.6768 49.0142 29.5385 48.9367 29.4144C48.7815 29.1507 47.3852 29.2593 47.1369 29.5385C47.0128 29.6937 46.6094 30.5625 46.2371 31.4779C45.8802 32.4088 45.5234 33.1535 45.4613 33.1535C45.3837 33.1535 44.2356 31.0124 42.9014 28.3749C41.5671 25.7529 40.4035 23.5187 40.3104 23.4101C40.2173 23.3015 39.7673 23.224 39.1623 23.224H38.1693V39.4681L37.8125 40.1507C37.3005 41.1282 36.3075 41.7022 35.1749 41.7022C34.7095 41.7022 34.1199 41.6091 33.8717 41.4695C33.1735 41.1127 32.4443 40.2904 32.2736 39.6853C32.1805 39.344 32.1185 35.9307 32.1185 31.1676V23.224L31.1566 23.2395C30.6135 23.2395 30.086 23.286 29.9774 23.3326Z" fill="#FCFCFC"/>
<path d="M48.6859 19.9117C47.9789 19.9126 47.3011 20.2163 46.8012 20.7563C46.3013 21.2962 46.0201 22.0282 46.0192 22.7917C46.0184 23.4157 46.2071 24.0227 46.5564 24.5197C46.5564 24.5197 46.6292 24.6231 46.6411 24.638L48.6859 27.2425L50.7317 24.6367C50.7423 24.6228 50.8153 24.5197 50.8153 24.5197L50.8155 24.5189C51.1647 24.0221 51.3533 23.4154 51.3525 22.7917C51.3517 22.0282 51.0704 21.2962 50.5705 20.7563C50.0706 20.2163 49.3928 19.9126 48.6859 19.9117ZM48.6859 23.839C48.4941 23.839 48.3066 23.7775 48.1471 23.6625C47.9877 23.5474 47.8634 23.3838 47.79 23.1925C47.7166 23.0011 47.6974 22.7905 47.7348 22.5874C47.7722 22.3842 47.8646 22.1976 48.0002 22.0512C48.1358 21.9047 48.3086 21.805 48.4967 21.7646C48.6848 21.7241 48.8798 21.7449 49.0569 21.8242C49.2341 21.9034 49.3856 22.0376 49.4921 22.2099C49.5987 22.3821 49.6556 22.5846 49.6556 22.7917C49.6552 23.0693 49.553 23.3355 49.3712 23.5318C49.1894 23.7282 48.9429 23.8386 48.6859 23.839Z" fill="#453C38"/>
<path d="M44.0314 28.0835H53.3403V29.0144H44.0314V28.0835Z" fill="#FCFCFC"/>
</svg>
