<svg width="76" height="76" viewBox="0 0 76 76" fill="none" xmlns="http://www.w3.org/2000/svg">
<rect width="76" height="76" rx="20" fill="#89D6D6"/>
<path d="M26.2133 41.8533C26.2133 43.9594 24.506 45.6666 22.4 45.6666C20.294 45.6666 18.5867 43.9594 18.5867 41.8533C18.5867 39.7473 20.294 38.04 22.4 38.04C24.506 38.04 26.2133 39.7473 26.2133 41.8533Z" fill="#1E1E1E"/>
<path d="M25.3662 41.8532C25.3662 43.4913 24.0383 44.8192 22.4003 44.8192C20.7623 44.8192 19.4344 43.4913 19.4344 41.8532C19.4344 40.2152 20.7623 38.8873 22.4003 38.8873C24.0383 38.8873 25.3662 40.2152 25.3662 41.8532Z" fill="#1E1E1E"/>
<path d="M23.2474 39.9466H21.5526V40.794L22.4 41.6414L23.2474 40.794V39.9466Z" fill="#1E1E1E"/>
<path d="M23.2474 42.9125V43.76H21.5526V42.9125L22.4 42.0651L23.2474 42.9125Z" fill="#1E1E1E"/>
<path d="M20.4933 42.7007V41.0059H21.3407L22.1881 41.8533L21.3407 42.7007H20.4933Z" fill="#1E1E1E"/>
<path d="M23.4593 41.0059H24.3067V42.7007H23.4593L22.6119 41.8533L23.4593 41.0059Z" fill="#1E1E1E"/>
<path d="M57.4133 41.8533C57.4133 43.9593 55.706 45.6666 53.6 45.6666C51.494 45.6666 49.7867 43.9593 49.7867 41.8533C49.7867 39.7472 51.494 38.0399 53.6 38.0399C55.706 38.0399 57.4133 39.7472 57.4133 41.8533Z" fill="#1E1E1E"/>
<path d="M53.1397 39.8847C53.1215 39.866 53.1074 39.8448 53.0966 39.8221C53.0809 39.7872 53.0751 39.7489 53.0793 39.7117C53.0842 39.6653 53.1041 39.6208 53.1397 39.5851C53.167 39.558 53.1992 39.5397 53.234 39.5304L53.2605 39.5249L53.2928 39.5228C53.3457 39.5234 53.3987 39.5445 53.4392 39.5851L53.7388 39.8847L54.0384 39.5851C54.1211 39.5026 54.2552 39.5023 54.3379 39.5851C54.3562 39.6035 54.3702 39.6245 54.381 39.6469C54.3967 39.6817 54.4025 39.7198 54.3992 39.7571C54.3942 39.8037 54.3735 39.849 54.3379 39.8847L54.0384 40.1843L54.3379 40.4839C54.3603 40.5063 54.3768 40.5327 54.3876 40.5607C54.4 40.5943 54.4033 40.6304 54.3975 40.6654C54.3926 40.6963 54.3818 40.726 54.3636 40.7526C54.3562 40.7635 54.3479 40.7738 54.3379 40.7835C54.2933 40.8284 54.2328 40.8489 54.1741 40.845C54.1244 40.8416 54.0764 40.8211 54.0384 40.7835L53.7388 40.4839L53.4392 40.7835C53.4012 40.8218 53.3515 40.8423 53.301 40.8451C53.2431 40.8483 53.1844 40.8278 53.1397 40.7835C53.0569 40.7008 53.0569 40.5664 53.1397 40.4839L53.4392 40.1843L53.1397 39.8847Z" fill="#1E1E1E"/>
<path d="M54.5457 44.2822L53.8116 43.0111L53.0776 44.2822H54.5457Z" fill="#1E1E1E"/>
<path d="M56.142 42.1637C56.142 42.6317 55.763 43.0111 55.2946 43.0111C54.8262 43.0111 54.4472 42.6317 54.4472 42.1637C54.4472 41.6956 54.8262 41.3163 55.2946 41.3163C55.763 41.3163 56.142 41.6956 56.142 42.1637Z" fill="#1E1E1E"/>
<path d="M52.7524 41.3163H51.0576V43.0111H52.7524V41.3163Z" fill="#1E1E1E"/>
<path d="M64 46.4605L63.8929 46.3078L55.2163 25.1357C54.7822 24.1121 53.5464 23.7045 52.5885 24.269L40.032 31.669C38.8792 32.3483 37.4485 32.3483 36.2957 31.669L23.716 24.2553C22.7663 23.6956 21.5409 24.0911 21.0976 25.1004L12.0791 46.4537L12 46.6198L22.0726 51.4251L32.1875 44.9725L32.8626 45.0771L33.1856 44.7501C34.2495 43.6497 34.9382 42.4156 35.2968 40.9448C35.4847 40.1632 35.5913 39.2323 35.5262 38.91C35.508 38.8165 35.0042 39.133 30.9612 41.8032L26.4158 44.8052L26.5352 44.9861C26.6808 45.2065 26.6817 45.5631 26.5427 45.866C26.4427 46.07 26.2989 46.1812 24.7555 47.2005C23.315 48.1519 23.0291 48.3245 22.7953 48.3652C22.4944 48.4098 22.4478 48.3918 18.627 46.621C16.3361 45.5607 15.9721 45.4439 15.4835 45.6124C15.3438 45.664 14.962 45.8756 14.6291 46.0955C14.1631 46.4033 14.0532 46.5002 14.1148 46.5407C14.4029 46.7401 21.0501 49.737 21.3022 49.7897C21.4723 49.8235 21.8091 49.8202 22.0527 49.7811L22.4864 49.7138L25.955 47.4636C29.3206 45.2814 29.4394 45.2111 29.9028 45.0836C30.5304 44.9019 31.1959 44.8514 31.9064 44.9336L22.0597 51.2151L12.0791 46.4537L22.3538 33.3679C23.4599 31.9593 25.4194 31.5517 26.9954 32.4023L36.4243 37.4913C37.5106 38.0776 38.8185 38.0801 39.907 37.498L49.4247 32.4085C51.0178 31.5566 52.9936 31.9872 54.0877 33.4247L63.8929 46.3078L53.9921 51.0311L44.3943 44.9084C45.0034 44.8665 45.5791 44.9251 46.126 45.0835C46.5895 45.211 46.7082 45.2813 50.0739 47.4636L53.5424 49.7138L53.9761 49.781C54.2197 49.8201 54.5566 49.8234 54.7267 49.7896C54.9788 49.737 61.6259 46.74 61.9141 46.5406C61.9756 46.5001 61.8658 46.4032 61.3997 46.0954C61.0668 45.8755 60.685 45.664 60.5453 45.6123C60.0568 45.4439 59.6928 45.5606 57.4018 46.6209C53.5811 48.3918 53.5345 48.4097 53.2335 48.3652C52.9997 48.3244 52.7138 48.1518 51.2733 47.2005C49.73 46.1811 49.5861 46.0699 49.4862 45.8659C49.3472 45.563 49.348 45.2064 49.4936 44.986L49.6131 44.8051L45.0677 41.8031C41.0246 39.1329 40.5209 38.8165 40.5026 38.9099C40.4375 39.2322 40.5442 40.1631 40.732 40.9448C41.0906 42.4155 41.7794 43.6496 42.8432 44.75L43.1662 45.077L43.8731 44.9675C43.948 44.9558 44.0224 44.9455 44.0964 44.9366L53.9791 51.2411L64 46.4605Z" fill="#1E1E1E"/>
<path d="M40.4635 38.166L47.6384 42.7653V38.166L50.306 33.3827L47.6384 34.5785L40.4635 38.166Z" fill="#1E1E1E"/>
<path d="M35.5882 38.166L28.4132 42.7653V38.166L25.7456 33.3827L28.4132 34.5785L35.5882 38.166Z" fill="#1E1E1E"/>
</svg>
