<svg width="98" height="88" viewBox="0 0 98 88" fill="none" xmlns="http://www.w3.org/2000/svg">
<g clip-path="url(#clip0_13_71)">
<path d="M40.2735 55.8817V43.582L36.4395 40.0923L33.0015 38.1558V53.7111C33.0015 54.9121 33.9795 55.8817 35.1831 55.8817H40.2735Z" fill="#4285F4"/>
<path d="M57.7266 55.8821H62.8169C64.0242 55.8821 64.9986 54.9089 64.9986 53.7115V38.1562L61.1045 40.3743L57.7266 43.5824V55.8821Z" fill="#34A853"/>
<path d="M40.2736 43.5823L39.752 38.7764L40.2736 34.1768L49 40.6883L57.7263 34.1768L58.3099 38.5281L57.7263 43.5823L49 50.0939L40.2736 43.5823Z" fill="#EA4335"/>
<path d="M57.7266 34.1766V43.5821L64.9986 38.1559V35.2618C64.9986 32.5777 61.9189 31.0475 59.7629 32.6573L57.7266 34.1766Z" fill="#FBBC04"/>
<path d="M33.0015 38.156L36.346 40.6517L40.2735 43.5822V34.1767L38.2372 32.6573C36.0774 31.0475 33.0015 32.5778 33.0015 35.2618V38.1558V38.156Z" fill="#C5221F"/>
</g>
<path d="M67.3238 2L29.9904 2C28.3537 2.00168 26.7462 2.43373 25.3292 3.25282C23.9122 4.07191 22.7355 5.24923 21.9171 6.66667L3.25043 39.3333C2.43126 40.7522 2 42.3617 2 44C2 45.6383 2.43126 47.2478 3.25043 48.6667L21.9171 81.3333C22.7355 82.7508 23.9122 83.9281 25.3292 84.7472C26.7462 85.5663 28.3537 85.9983 29.9904 86L67.3238 86C68.9605 85.9983 70.568 85.5663 71.985 84.7472C73.402 83.9281 74.5787 82.7508 75.3971 81.3333L94.0638 48.6667C94.8829 47.2478 95.3142 45.6383 95.3142 44C95.3142 42.3617 94.8829 40.7522 94.0638 39.3333L75.3971 6.66667C74.5787 5.24923 73.402 4.07191 71.985 3.25282C70.568 2.43373 68.9605 2.00168 67.3238 2Z" stroke="url(#paint0_linear_13_71)" stroke-width="3.5" stroke-linecap="round" stroke-linejoin="round"/>
<defs>
<linearGradient id="paint0_linear_13_71" x1="19" y1="-3.00001" x2="113" y2="106" gradientUnits="userSpaceOnUse">
<stop stop-color="#FCFCFC"/>
<stop offset="1" stop-color="#969292"/>
</linearGradient>
<clipPath id="clip0_13_71">
<rect width="32" height="24" fill="white" transform="translate(33 32)"/>
</clipPath>
</defs>
</svg>
