<svg width="98" height="88" viewBox="0 0 98 88" fill="none" xmlns="http://www.w3.org/2000/svg">
<path d="M49 30C46.0837 30.0034 43.2878 31.1635 41.2256 33.2256C39.1635 35.2878 38.0035 38.0837 38 41C37.9965 43.3832 38.775 45.7018 40.216 47.6C40.216 47.6 40.516 47.995 40.565 48.052L49 58L57.439 48.047C57.483 47.994 57.784 47.6 57.784 47.6L57.785 47.597C59.2253 45.6996 60.0034 43.3821 60 41C59.9966 38.0837 58.8365 35.2878 56.7744 33.2256C54.7122 31.1635 51.9163 30.0034 49 30ZM49 45C48.2089 45 47.4355 44.7654 46.7777 44.3259C46.1199 43.8864 45.6072 43.2616 45.3045 42.5307C45.0017 41.7998 44.9225 40.9956 45.0769 40.2196C45.2312 39.4437 45.6122 38.731 46.1716 38.1716C46.731 37.6122 47.4437 37.2312 48.2197 37.0769C48.9956 36.9225 49.7998 37.0017 50.5307 37.3045C51.2616 37.6072 51.8864 38.1199 52.3259 38.7777C52.7654 39.4355 53 40.2089 53 41C52.9987 42.0605 52.5768 43.0771 51.827 43.827C51.0771 44.5768 50.0605 44.9987 49 45Z" fill="#FBBC04"/>
<path d="M67.2662 2L29.9328 2C28.2961 2.00168 26.6886 2.43373 25.2716 3.25282C23.8546 4.07191 22.6778 5.24923 21.8595 6.66667L3.19281 39.3333C2.37364 40.7522 1.94238 42.3617 1.94238 44C1.94238 45.6383 2.37364 47.2478 3.19281 48.6667L21.8595 81.3333C22.6778 82.7508 23.8546 83.9281 25.2716 84.7472C26.6886 85.5663 28.2961 85.9983 29.9328 86L67.2662 86C68.9029 85.9983 70.5104 85.5663 71.9274 84.7472C73.3444 83.9281 74.5211 82.7508 75.3395 81.3333L94.0062 48.6667C94.8253 47.2478 95.2566 45.6383 95.2566 44C95.2566 42.3617 94.8253 40.7522 94.0062 39.3333L75.3395 6.66667C74.5211 5.24923 73.3444 4.07191 71.9274 3.25282C70.5104 2.43373 68.9029 2.00168 67.2662 2Z" stroke="url(#paint0_linear_13_76)" stroke-width="3.5" stroke-linecap="round" stroke-linejoin="round"/>
<defs>
<linearGradient id="paint0_linear_13_76" x1="18.9424" y1="-3.00001" x2="112.942" y2="106" gradientUnits="userSpaceOnUse">
<stop stop-color="#FCFCFC"/>
<stop offset="1" stop-color="#969292"/>
</linearGradient>
</defs>
</svg>
