<svg width="28" height="28" viewBox="0 0 28 28" fill="none" xmlns="http://www.w3.org/2000/svg">
<path d="M13.9512 27.1666C21.1309 27.1666 26.9512 21.3463 26.9512 14.1666C26.9512 6.98692 21.1309 1.16663 13.9512 1.16663C6.77147 1.16663 0.951172 6.98692 0.951172 14.1666C0.951172 21.3463 6.77147 27.1666 13.9512 27.1666Z" stroke="#0A0A0A" stroke-width="0.8" stroke-linecap="round" stroke-linejoin="round"/>
<path d="M13.9512 21.9666C18.259 21.9666 21.7512 18.4744 21.7512 14.1666C21.7512 9.85881 18.259 6.36663 13.9512 6.36663C9.64335 6.36663 6.15117 9.85881 6.15117 14.1666C6.15117 18.4744 9.64335 21.9666 13.9512 21.9666Z" stroke="#0A0A0A" stroke-width="0.8" stroke-linecap="round" stroke-linejoin="round"/>
<path d="M13.9512 16.7666C15.3871 16.7666 16.5512 15.6026 16.5512 14.1666C16.5512 12.7307 15.3871 11.5666 13.9512 11.5666C12.5152 11.5666 11.3512 12.7307 11.3512 14.1666C11.3512 15.6026 12.5152 16.7666 13.9512 16.7666Z" stroke="#0A0A0A" stroke-width="0.8" stroke-linecap="round" stroke-linejoin="round"/>
</svg>
