<svg width="27" height="27" viewBox="0 0 27 27" fill="none" xmlns="http://www.w3.org/2000/svg">
<path d="M8.09551 5.39855H13.0618V8.03623H3.42135V11.2391H0.5V15.7609H3.42135V21.9783H0.5V26.5H7.07303V21.9783H4.15169V19.1522H13.0618V21.9783H10.1404V26.5H16.8596V24.8043H19.927V26.5H26.5V21.9783H19.927V23.6739H16.8596V21.9783H13.9382V18.0217H4.15169V15.7609H7.07303V11.2391H4.15169V9.16667H13.0618V11.2391H10.1404V15.7609H16.8596V11.2391H13.9382V9.16667H22.8483V11.2391H19.927V15.7609H26.5V11.2391H23.5787V8.03623H13.9382V5.39855H18.9045V0.5H8.09551V5.39855ZM18.0281 4.45652H8.97191V1.44203H18.0281V4.45652ZM6.3427 14.8188H1.23034V12.1812H6.3427V14.8188ZM15.9831 14.8188H11.0169V12.1812H15.9831V14.8188ZM25.7697 14.8188H20.6573V12.1812H25.7697V14.8188ZM6.3427 25.558H1.23034V22.9203H6.3427V25.558ZM15.9831 25.558H11.0169V22.9203H15.9831V25.558ZM25.7697 25.558H20.6573V22.9203H25.7697V25.558Z" fill="#0A0A0A"/>
</svg>
