<svg width="27" height="27" viewBox="0 0 27 27" fill="none" xmlns="http://www.w3.org/2000/svg">
<path d="M23.1511 0.601563C22.9479 0.804688 22.9835 1.19063 23.2222 1.32773C23.2882 1.36328 23.6335 1.39883 24.0905 1.41406L24.8472 1.43945L21.8511 4.25781C20.2058 5.80664 18.8093 7.1168 18.7483 7.16758C18.6417 7.25899 18.6112 7.24375 16.3616 5.74063C15.1124 4.90781 14.0308 4.1918 13.9597 4.15625C13.7413 4.03945 13.4874 4.00391 13.2792 4.05977C13.1675 4.09023 12.096 4.74023 10.8976 5.50703C9.69404 6.27383 8.68857 6.89844 8.6581 6.89844C8.62764 6.89844 7.81514 6.63438 6.85029 6.31445C5.88545 5.99453 5.02217 5.73047 4.93076 5.73047C4.83935 5.73047 4.68701 5.76094 4.59561 5.80156C4.44834 5.8625 0.929199 8.92969 0.614355 9.26992C0.533105 9.35625 0.502637 9.45273 0.502637 9.61524C0.502637 9.89961 0.644824 10.0469 0.913965 10.0469C1.15264 10.0469 1.1374 10.057 3.27021 8.15781L4.946 6.65977L6.76904 7.26914C8.33818 7.78711 8.61748 7.86836 8.80029 7.84297C8.96279 7.81758 9.5417 7.47227 11.2429 6.38555C12.4718 5.60352 13.4976 4.97383 13.5331 4.98906C13.5636 4.99922 14.6503 5.72031 15.9503 6.58359C17.5245 7.62969 18.3675 8.16289 18.4944 8.18828C18.7636 8.23906 19.0632 8.14258 19.3069 7.92422C19.4237 7.82266 20.871 6.46172 22.5265 4.90273C24.1819 3.34883 25.5479 2.07422 25.5632 2.07422C25.5784 2.07422 25.5886 2.4043 25.5886 2.81055C25.5886 3.65859 25.6394 3.84648 25.8882 3.94805C26.071 4.0293 26.264 3.98867 26.4011 3.85156C26.4976 3.75508 26.5026 3.67383 26.5026 2.23672V0.718359L26.3858 0.611719C26.269 0.5 26.2386 0.5 24.7608 0.5C23.3288 0.5 23.2476 0.505078 23.1511 0.601563Z" fill="#0A0A0A"/>
<path d="M12.6952 7.94453C11.8929 8.15781 11.1312 8.79258 10.7655 9.54922C10.5116 10.0773 10.4354 10.4734 10.4659 11.0777C10.5116 11.8801 10.8112 12.5402 11.3851 13.0988L11.6847 13.3934L11.3597 13.5559C10.1104 14.1855 9.24209 15.257 8.85615 16.6484C8.77998 16.9176 8.75967 17.2324 8.74443 18.3699C8.72412 19.3703 8.73936 19.8273 8.77998 19.9848C8.86123 20.2691 9.171 20.6195 9.48076 20.7719L9.71943 20.8887H17.2858L17.5245 20.7719C17.8343 20.6195 18.144 20.2691 18.2253 19.9848C18.2659 19.8273 18.2812 19.3703 18.2608 18.3699C18.2456 17.2324 18.2253 16.9176 18.1491 16.6484C17.7632 15.257 16.8948 14.1855 15.6456 13.5559L15.3206 13.3934L15.6202 13.0988C16.194 12.5402 16.4937 11.8801 16.5394 11.0777C16.5698 10.4734 16.4937 10.0773 16.2397 9.54922C15.869 8.78242 15.1073 8.15273 14.2847 7.93945C13.914 7.84297 13.0659 7.84297 12.6952 7.94453ZM14.4269 8.9957C16.1382 9.83867 15.9909 12.2355 14.1882 12.9211C14.0054 12.9922 13.8073 13.0176 13.4772 13.0176C13.0812 13.0125 12.9745 12.9922 12.7003 12.8652C11.8065 12.459 11.319 11.677 11.3851 10.7527C11.446 9.87422 11.9894 9.17852 12.8679 8.86367C13.0608 8.79766 13.2386 8.77734 13.5839 8.79258C14.0003 8.80273 14.0917 8.82812 14.4269 8.9957ZM14.4421 14.0738C15.7573 14.4445 16.7729 15.3992 17.1944 16.6738C17.3265 17.0648 17.3315 17.1309 17.3519 18.4004L17.3722 19.7207L17.0979 19.9746H9.90732L9.63311 19.7207L9.65342 18.4004C9.67373 17.1105 9.67373 17.0699 9.81084 16.6738C10.1206 15.7902 10.6741 15.0691 11.4104 14.5918C11.8065 14.3379 12.4312 14.0891 12.8577 14.0078C13.203 13.9469 14.1222 13.9875 14.4421 14.0738Z" fill="#0A0A0A"/>
<path d="M0.969824 22.2395C0.853027 22.3004 0.705762 22.4172 0.639746 22.5086C0.528027 22.6609 0.528027 22.7016 0.512793 24.291L0.497559 25.9211L0.614355 26.0938C0.680371 26.1902 0.812402 26.3223 0.903809 26.3832C1.07646 26.5 1.09678 26.5 2.64561 26.5C4.42295 26.5 4.46865 26.4898 4.70732 26.1293C4.83428 25.9414 4.84443 25.8703 4.85967 25.3473L4.87998 24.7734H8.94756L8.6124 25.1238C8.37373 25.3676 8.27217 25.5148 8.27217 25.6063C8.27217 25.9973 8.62256 26.2055 8.97295 26.0227C9.19639 25.9059 10.4456 24.6109 10.4812 24.4535C10.5015 24.3773 10.4913 24.2504 10.4608 24.1691C10.4253 24.093 10.0749 23.702 9.67373 23.3059C8.97803 22.6203 8.94248 22.5898 8.74443 22.5898C8.57178 22.5898 8.51084 22.6203 8.39912 22.7523C8.196 22.9961 8.24678 23.1941 8.6124 23.5648L8.90186 23.8594H4.86982V23.3617C4.86475 22.666 4.73271 22.3918 4.296 22.209C4.14365 22.148 3.84912 22.1328 2.65068 22.1328C1.26436 22.1328 1.17803 22.1379 0.969824 22.2395ZM3.95576 25.5859H1.4167V23.0469H3.95576V25.5859Z" fill="#0A0A0A"/>
<path d="M11.8979 22.1887C11.6897 22.2496 11.3851 22.5898 11.3444 22.8031C11.3292 22.8945 11.319 23.6461 11.3292 24.4738L11.3444 25.977L11.4866 26.1598C11.7456 26.5 11.7456 26.5 13.5026 26.5C15.2597 26.5 15.2597 26.5 15.5187 26.1598C15.6507 25.9871 15.6608 25.9414 15.6761 25.3727L15.6964 24.7734H19.769L19.444 25.1035C19.1495 25.4031 19.114 25.4539 19.114 25.6418C19.114 25.9109 19.3069 26.0938 19.5862 26.0938C19.7589 26.0938 19.83 26.0379 20.546 25.3168C21.2823 24.5805 21.3229 24.5297 21.3229 24.3418C21.3229 24.1539 21.2823 24.1031 20.546 23.3668C19.8198 22.6406 19.7589 22.5898 19.5812 22.5898C19.312 22.5898 19.1394 22.7676 19.1394 23.0469C19.1394 23.2348 19.1749 23.2906 19.4288 23.5598L19.7132 23.8594H15.6862V23.3566C15.6862 23.0773 15.6608 22.7879 15.6304 22.7066C15.5542 22.4934 15.2851 22.2395 15.0769 22.1836C14.8534 22.1227 12.1163 22.1227 11.8979 22.1887ZM14.7722 25.5859H12.2331V23.0469H14.7722V25.5859Z" fill="#0A0A0A"/>
<path d="M22.6636 22.2293C22.4249 22.341 22.2573 22.5289 22.1812 22.7879C22.1507 22.9047 22.1354 23.5039 22.1456 24.4484L22.1608 25.9262L22.2979 26.1293C22.5366 26.4898 22.5823 26.5 24.3597 26.5C25.9085 26.5 25.9288 26.5 26.1015 26.3832C26.1929 26.3223 26.3249 26.1902 26.3858 26.0988C26.5026 25.9262 26.5026 25.9059 26.5026 24.357C26.5026 22.5797 26.4925 22.534 26.1319 22.2953L25.9288 22.1582L24.4003 22.143C22.9987 22.1328 22.8565 22.143 22.6636 22.2293ZM25.5886 25.5859H23.0495V23.0469H25.5886V25.5859Z" fill="#0A0A0A"/>
</svg>
