<svg width="27" height="27" viewBox="0 0 27 27" fill="none" xmlns="http://www.w3.org/2000/svg">
<path d="M16.2857 16.2857V15.0476C16.2857 14.3909 16.0656 13.7611 15.6738 13.2967C15.282 12.8323 14.7505 12.5714 14.1964 12.5714H10.0179C9.46374 12.5714 8.93233 12.8323 8.54051 13.2967C8.14869 13.7611 7.92857 14.3909 7.92857 15.0476V16.2857M26.5 26.5L20.2166 20.2166M14.1964 7.61905C14.1964 8.98661 13.261 10.0952 12.1071 10.0952C10.9533 10.0952 10.0179 8.98661 10.0179 7.61905C10.0179 6.25149 10.9533 5.14286 12.1071 5.14286C13.261 5.14286 14.1964 6.25149 14.1964 7.61905ZM23.6112 12.0556C23.6112 18.4376 18.4376 23.6112 12.0556 23.6112C5.67363 23.6112 0.5 18.4376 0.5 12.0556C0.5 5.67363 5.67363 0.5 12.0556 0.5C18.4376 0.5 23.6112 5.67363 23.6112 12.0556Z" stroke="#0A0A0A" stroke-width="0.8" stroke-linecap="round" stroke-linejoin="round"/>
</svg>
