<svg width="25" height="27" viewBox="0 0 25 27" fill="none" xmlns="http://www.w3.org/2000/svg">
<path d="M10.9696 0.797577C10.5348 0.979648 10.013 1.38931 9.75217 1.73828C9.35217 2.25415 9.28261 2.51208 9.28261 3.42244C9.28261 4.28728 9.35217 4.59073 9.66522 4.97005L10.0478 5.42523L9.07391 5.6073C8.55217 5.69833 7.83913 5.95627 7.5087 6.18386C6.37826 6.94249 5.94348 8.38389 6.5 9.55218C7.14348 10.8874 8.23913 11.3881 10.4652 11.4032H11.9783V15.6516H10.0652V15.0447C10.0652 14.6957 9.94348 14.2102 9.78696 13.9674C9.33478 13.1936 8.7087 13.0722 5.28261 13.0722C0.673913 13.0722 0.5 13.1784 0.5 16.0764V17.9578L1.0913 18.4737C1.68261 18.9896 1.7 18.9896 3.26522 18.9896H4.84783V23.1165L5.92609 23.9965H14.9L14.9696 24.8462C15.0391 25.4986 15.1609 25.7717 15.5261 26.0903L15.9783 26.5H23.4913L23.9957 25.9993C24.5 25.5138 24.5 25.4834 24.5 23.6475C24.5 21.5689 24.3609 21.2351 23.3522 20.871C23.0217 20.7496 22.187 20.6585 21.4565 20.6585H20.1522V19.0199L21.8217 18.9592C23.4565 18.9137 23.4913 18.8985 23.9957 18.413C24.5 17.9275 24.5 17.8971 24.5 16.0612C24.5 13.1784 24.3261 13.0722 19.7174 13.0722C16.2913 13.0722 15.6652 13.1936 15.213 13.9674C15.0565 14.2102 14.9348 14.6957 14.9348 15.0447V15.6516H13.0217V11.4032H14.5522C16.7609 11.3881 17.8565 10.8874 18.5 9.55218C18.8652 8.77838 18.8304 7.97423 18.3957 7.20042C17.9261 6.33558 17.1261 5.81972 15.9435 5.6073L14.987 5.4404L15.387 4.81832C16.2217 3.55899 15.7348 1.75345 14.3783 0.964476C13.4043 0.418261 11.9957 0.342398 10.9696 0.797577ZM14.013 1.7838C15.1957 2.5576 15.213 4.02935 14.0652 4.9397C13.4739 5.41005 13.2478 5.48592 12.5348 5.48592C10.813 5.48592 9.71739 4.19624 10.2217 2.73967C10.4304 2.14794 11.213 1.49552 11.8913 1.34379C12.5 1.20724 13.4391 1.40448 14.013 1.7838ZM16.6913 6.74524C17.9435 7.47353 18.187 8.77838 17.2478 9.74942C16.4652 10.5536 15.9783 10.6446 12.4652 10.6446C9.63043 10.6446 9.23044 10.6143 8.56957 10.326C8.01304 10.0984 7.73478 9.84046 7.43913 9.33976C6.86522 8.29285 7.21304 7.30663 8.37826 6.69973C8.88261 6.42662 9.26522 6.39628 12.5174 6.39628C15.9435 6.39628 16.1174 6.41145 16.6913 6.74524ZM8.91739 14.3164C9.12609 14.5591 9.19565 15.0295 9.19565 16.0764C9.19565 17.3661 9.16087 17.5178 8.76087 17.8516C8.34348 18.2309 8.3087 18.2309 5.19565 18.2309C1.24783 18.2309 1.36957 18.3068 1.36957 16.0764C1.36957 13.8764 1.16087 13.9826 5.3 13.9826C8.56957 13.9826 8.65652 13.9978 8.91739 14.3164ZM23.3174 14.2405C23.5783 14.4529 23.6304 14.726 23.6304 16.0612C23.6304 18.3068 23.7696 18.2309 19.8043 18.2309C16.6913 18.2309 16.6565 18.2309 16.2391 17.8516C15.8391 17.5178 15.8043 17.3661 15.8043 16.0764C15.8043 13.8916 15.6304 13.9826 19.6652 13.9826C22.5174 13.9826 23.0391 14.0129 23.3174 14.2405ZM14.9696 17.2599C15.0391 17.9123 15.1609 18.1854 15.5261 18.504C15.9435 18.8833 16.1174 18.9137 17.6304 18.9592L19.2826 19.0199V20.6585H17.9783C15.8043 20.6585 14.9348 21.2199 14.9348 22.631V23.2379H10.6391C6.9 23.2379 6.3087 23.2075 6.03044 22.98C5.75217 22.7675 5.71739 22.4793 5.71739 20.871V19.0199L7.36957 18.9592C8.88261 18.9137 9.05652 18.8833 9.47391 18.504C9.83913 18.1854 9.96087 17.9123 10.0304 17.2599L10.1 16.4102H14.9L14.9696 17.2599ZM23.3174 21.8268C23.5783 22.0392 23.6304 22.3124 23.6304 23.6475C23.6304 25.8931 23.7696 25.8172 19.8043 25.8172C16.6913 25.8172 16.6565 25.8172 16.2391 25.4379C15.8391 25.1041 15.8043 24.9524 15.8043 23.6627C15.8043 21.4779 15.6304 21.5689 19.6652 21.5689C22.5174 21.5689 23.0391 21.5992 23.3174 21.8268Z" fill="#0A0A0A"/>
<path d="M3.38696 15.8943C3.19565 16.3343 3.45652 16.4102 5.3 16.4102C7.1087 16.4102 7.12609 16.4102 7.07391 16.0612C7.02174 15.7426 6.93478 15.7274 5.26522 15.6819C3.76957 15.6516 3.47391 15.6819 3.38696 15.8943Z" fill="#0A0A0A"/>
<path d="M18.013 15.7578C17.9435 15.8033 17.8913 15.9854 17.8913 16.1371C17.8913 16.3799 18.0652 16.4102 19.7 16.4102C21.5261 16.4102 21.8043 16.3343 21.613 15.8943C21.5261 15.6971 21.1957 15.6516 19.8217 15.6516C18.8826 15.6516 18.0652 15.6971 18.013 15.7578Z" fill="#0A0A0A"/>
<path d="M18.013 23.3441C17.9435 23.3896 17.8913 23.5717 17.8913 23.7234C17.8913 23.9662 18.0652 23.9965 19.7 23.9965C21.5261 23.9965 21.8043 23.9207 21.613 23.4806C21.5261 23.2834 21.1957 23.2379 19.8217 23.2379C18.8826 23.2379 18.0652 23.2834 18.013 23.3441Z" fill="#0A0A0A"/>
<path d="M20.8478 5.71351C20.6739 5.89558 20.6739 5.98662 20.8478 6.16869C21.0217 6.36593 21.4043 6.39628 22.7435 6.36593C24.3957 6.32041 24.413 6.32041 24.413 5.9411C24.413 5.56178 24.3957 5.56178 22.7435 5.51626C21.4043 5.48592 21.0217 5.51627 20.8478 5.71351Z" fill="#0A0A0A"/>
<path d="M20.7783 8.30803C20.587 8.74803 20.8478 8.8239 22.6913 8.8239C24.5 8.8239 24.5174 8.8239 24.4652 8.47493C24.413 8.1563 24.3261 8.14113 22.6565 8.09561C21.1609 8.06526 20.8652 8.09561 20.7783 8.30803Z" fill="#0A0A0A"/>
</svg>
