<svg width="27" height="27" viewBox="0 0 27 27" fill="none" xmlns="http://www.w3.org/2000/svg">
<path d="M1.23782 0.618181C1.11765 0.68487 0.942871 0.844922 0.844555 0.964962C0.473139 1.44512 0.500449 0.458129 0.500449 13.4957C0.500449 26.5333 0.473139 25.5464 0.844555 26.0265C0.942871 26.1466 1.11765 26.3066 1.23782 26.3733C1.44537 26.4933 1.70755 26.5 6.66158 26.5C10.9056 26.5 11.8996 26.4867 12.0416 26.4133C12.2984 26.2799 12.5605 25.9865 12.6971 25.6731C12.8118 25.4063 12.8173 25.333 12.8336 22.7788L12.85 20.1646H14.15L14.1664 22.7788C14.1828 25.333 14.1882 25.4063 14.3029 25.6731C14.4395 25.9865 14.7016 26.2799 14.9584 26.4133C15.1004 26.4867 16.0944 26.5 20.3384 26.5C25.2925 26.5 25.5546 26.4933 25.7622 26.3733C25.8823 26.3066 26.0571 26.1466 26.1554 26.0265C26.5269 25.5464 26.4996 26.54 26.4996 13.4824C26.4996 2.18536 26.4941 1.64518 26.3958 1.39177C26.2701 1.05166 25.9097 0.651525 25.642 0.558161C25.4945 0.504811 23.9106 0.491473 20.2073 0.504811L14.9857 0.524817L14.7508 0.724883C14.4777 0.958293 14.292 1.27173 14.2101 1.61851C14.1773 1.77189 14.1554 4.91959 14.1554 10.5081V19.1643H12.8446V10.5081C12.8446 4.91959 12.8227 1.77189 12.7899 1.61851C12.708 1.27173 12.5223 0.958293 12.2492 0.724883L12.0143 0.524817L6.73805 0.511479C1.6857 0.491473 1.44537 0.498142 1.23782 0.618181ZM3.85958 2.13868C3.94151 2.4988 4.05075 2.91227 4.0999 3.05898C4.22007 3.39242 4.5314 3.73254 4.79904 3.81923C5.10491 3.92593 8.26195 3.91259 8.55143 3.81256C8.67706 3.76588 8.87369 3.6125 8.99385 3.45911C9.19049 3.21903 9.23964 3.09899 9.40897 2.35875L9.6056 1.52515L10.6707 1.50514L11.7412 1.4918L12.0253 1.90527V19.1643H8.27833L8.15817 18.8375C7.88507 18.1106 7.31156 17.6638 6.6452 17.6704C5.96791 17.6771 5.44902 18.0906 5.17046 18.8375C5.03937 19.2043 5.02298 19.311 5.04483 19.7578C5.08306 20.5647 5.35616 21.0849 5.91875 21.425C6.36117 21.6984 6.93468 21.7184 7.35525 21.4717C7.67205 21.2916 8.02162 20.8515 8.16909 20.4447L8.27287 20.1646H12.0253V23.0989H1.31975V1.81857L1.4563 1.65852C1.58739 1.4918 1.59285 1.4918 2.64701 1.4918H3.70664L3.85958 2.13868ZM8.74806 1.51181C8.74806 1.52515 8.68798 1.77856 8.61698 2.08533C8.40942 2.95895 8.56236 2.89226 6.68889 2.89226C5.71666 2.89226 5.03937 2.86558 4.97929 2.82557C4.89189 2.76555 4.59695 1.80524 4.59695 1.56516C4.59695 1.51181 5.1923 1.4918 6.6725 1.4918C7.81406 1.4918 8.74806 1.49847 8.74806 1.51181ZM17.591 2.35875C17.7604 3.09899 17.8095 3.21903 18.0061 3.45911C18.1263 3.6125 18.3229 3.76588 18.4486 3.81256C18.7381 3.91259 21.8951 3.92593 22.201 3.81923C22.4686 3.73254 22.7799 3.39242 22.9001 3.05898C22.9493 2.91227 23.0585 2.4988 23.1404 2.13868L23.2934 1.4918H24.353C25.4072 1.4918 25.4126 1.4918 25.5437 1.65852L25.6803 1.81857V23.0989H14.9747V20.1646H19.967L19.6502 20.5581C19.399 20.8715 19.328 21.0049 19.328 21.1583C19.328 21.445 19.4809 21.6317 19.7267 21.6317C19.9069 21.6317 19.9834 21.5584 20.6443 20.7448C21.2287 20.0245 21.3653 19.8178 21.3653 19.6644C21.3653 19.511 21.2287 19.3043 20.6443 18.5841C20.2456 18.0972 19.8796 17.6771 19.8195 17.6571C19.5628 17.5571 19.246 17.9372 19.3225 18.2573C19.3389 18.3307 19.4918 18.5707 19.6611 18.7841L19.967 19.1643H14.9747V1.90527L15.2588 1.4918L16.3293 1.50514L17.3944 1.52515L17.591 2.35875ZM22.4031 1.57183C22.4031 1.81857 22.1136 2.76555 22.0207 2.82557C21.9606 2.86558 21.2997 2.89226 20.3111 2.89226C18.4376 2.89226 18.5906 2.95895 18.383 2.08533C18.312 1.77856 18.2519 1.52515 18.2519 1.51181C18.2519 1.49847 19.1859 1.4918 20.3275 1.4918C21.906 1.4918 22.4031 1.51181 22.4031 1.57183ZM6.97838 18.7575C7.39895 18.9909 7.57373 19.4844 7.40987 19.9979C7.16955 20.7715 6.31747 20.8582 5.96245 20.1513C5.65111 19.531 6.0553 18.6708 6.6725 18.6374C6.7162 18.6374 6.85275 18.6908 6.97838 18.7575ZM12.0253 24.5927C12.0253 25.0329 12.0089 25.1129 11.8833 25.2929L11.7412 25.4997H1.58739L1.4563 25.333C1.33613 25.1862 1.31975 25.1195 1.31975 24.6327V24.0992H12.0253V24.5927ZM25.6803 24.6327C25.6803 25.1195 25.6639 25.1862 25.5437 25.333L25.4126 25.4997H15.2588L15.1168 25.2929C14.9911 25.1129 14.9747 25.0329 14.9747 24.5927V24.0992H25.6803V24.6327Z" fill="#0A0A0A"/>
<path d="M2.59786 5.49978C2.49954 5.63316 2.49408 5.76653 2.49408 7.52711C2.49408 9.28769 2.49954 9.42107 2.59786 9.55444C2.70163 9.69449 2.70709 9.69449 6.67797 9.69449H10.6543L10.7362 9.54778C10.8673 9.3277 10.8673 5.72652 10.7362 5.50645L10.6543 5.35973H6.67797C2.70709 5.35973 2.70163 5.35973 2.59786 5.49978ZM10.0043 8.76085H3.28607V6.29337H10.0043V8.76085Z" fill="#0A0A0A"/>
<path d="M2.69617 11.7752C2.48862 11.9019 2.44492 12.342 2.61424 12.5754C2.69617 12.6888 2.95835 12.6955 6.65612 12.6955C10.5341 12.6955 10.6051 12.6955 10.7144 12.5621C10.8782 12.362 10.8619 12.0086 10.6816 11.8352C10.5396 11.6951 10.5014 11.6951 6.67797 11.7018C4.00159 11.7018 2.78356 11.7285 2.69617 11.7752Z" fill="#0A0A0A"/>
<path d="M2.63063 14.8162C2.54324 14.9029 2.51046 15.0096 2.51046 15.1963C2.51046 15.383 2.54324 15.4897 2.63063 15.5764C2.74533 15.6898 2.98566 15.6965 6.66704 15.6965H10.5888L10.7035 15.5431C10.8619 15.3363 10.8619 15.0296 10.698 14.8428L10.5724 14.6961H6.66158C2.98566 14.6961 2.74533 14.7028 2.63063 14.8162Z" fill="#0A0A0A"/>
<path d="M16.2638 5.50645C16.1873 5.63983 16.1764 6.22669 16.1764 10.5281V15.4097L16.302 15.5497L16.4276 15.6965H20.3384C24.1072 15.6965 24.2547 15.6898 24.3748 15.5697L24.5059 15.443V10.5414C24.5059 5.81322 24.5005 5.63316 24.4021 5.49978C24.2984 5.35973 24.2929 5.35973 20.322 5.35973H16.3457L16.2638 5.50645ZM23.7139 14.6961H16.9957V6.29337H23.7139V14.6961Z" fill="#0A0A0A"/>
</svg>
