<svg width="27" height="23" viewBox="0 0 27 23" fill="none" xmlns="http://www.w3.org/2000/svg">
<path d="M1.41767 0.266384C1.25058 0.343503 0.993518 0.484887 0.87784 0.600565C0.659337 0.793362 0.646484 1.32034 0.646484 9.0065V17.1939L1.44338 17.8623H10.0292V20.8185H9.2195C8.15269 20.8185 7.97275 20.9984 7.97275 22.0781V22.875H19.0264V22.0653C19.0264 20.9984 18.8465 20.8185 17.7668 20.8185H16.9699V17.8623H25.5558L26.3527 17.1939L26.327 8.95508L26.2884 0.716243L25.4144 0.125L13.5767 0.137853C6.0962 0.137853 1.62332 0.189266 1.41767 0.266384ZM25.5686 1.23037C25.8385 1.56455 25.8385 1.69308 25.8385 8.36384V15.1631H1.14775L1.18631 8.29958C1.22487 1.75734 1.23773 1.42316 1.46908 1.1661L1.71329 0.896186H25.3116L25.5686 1.23037ZM25.8385 15.9857C25.8385 16.2814 25.5815 16.8855 25.4144 16.9883C25.3244 17.0397 19.9518 17.0911 13.4739 17.0911C1.84182 17.0911 1.67473 17.0911 1.41767 16.834C1.27629 16.6927 1.16061 16.4099 1.16061 16.1914V15.8058H13.4996C24.1291 15.8058 25.8385 15.8315 25.8385 15.9857ZM16.3273 20.69H10.6719V17.8623H16.3273V20.69ZM18.3838 22.1038H8.6154V21.4612H18.3838V22.1038Z" fill="#0A0A0A"/>
<path d="M4.27117 2.57994C1.81623 3.8267 2.85734 7.52839 5.6079 7.29703C6.97032 7.18136 7.84433 6.20452 7.84433 4.80353C7.84433 3.40254 6.97032 2.46427 5.55648 2.34859C4.9781 2.31003 4.70818 2.34859 4.27117 2.57994ZM6.63614 3.6339C7.20168 4.25085 7.3045 4.84209 6.95747 5.54901C6.08346 7.34845 3.43572 6.61582 3.64137 4.62359C3.69279 4.16088 3.80846 3.96808 4.24547 3.55678C4.75959 3.06836 4.811 3.05551 5.50507 3.10692C6.12202 3.15833 6.27626 3.23545 6.63614 3.6339Z" fill="#0A0A0A"/>
<path d="M5.58219 4.37938C4.9781 4.98347 4.90098 5.02203 4.65677 4.8678C4.41256 4.71356 4.34829 4.72641 4.16835 4.90636C3.97555 5.09915 3.98841 5.15056 4.38685 5.63898L4.811 6.17881L5.77499 5.20198C6.58473 4.40508 6.72612 4.19943 6.61044 4.01949C6.37908 3.6596 6.2634 3.69816 5.58219 4.37938Z" fill="#0A0A0A"/>
<path d="M9.12964 4.36652H19.7977V3.72387H9.12964V4.36652Z" fill="#0A0A0A"/>
<path d="M9.12964 5.9089H17.4842V5.26624H9.12964V5.9089Z" fill="#0A0A0A"/>
<path d="M20.4018 5.99887C20.3504 6.03743 20.3118 6.20452 20.3118 6.3459C20.3118 6.78291 21.3915 9.91907 21.5714 9.98333C21.8285 10.0862 22.0727 9.80339 22.2398 9.17359L22.4069 8.5952L23.1524 9.32782C23.6408 9.81624 23.9621 10.0347 24.0906 9.98333C24.4505 9.84195 24.3091 9.46921 23.6279 8.77514C23.0367 8.1839 22.9981 8.09393 23.2166 8.01681C24.1035 7.69548 24.2963 7.5798 24.2963 7.33559C24.2963 7.11709 24.0264 6.98856 22.4583 6.48729C20.4275 5.85749 20.5175 5.87034 20.4018 5.99887ZM22.1755 7.18136L22.8053 7.41271L22.394 7.5541C22.137 7.64407 21.9313 7.82401 21.8414 8.05537L21.7 8.41525L21.5329 7.9654C21.1216 6.78291 21.0959 6.80862 22.1755 7.18136Z" fill="#0A0A0A"/>
<path d="M4.5668 8.90367C3.84702 9.18644 3.61567 9.37924 3.25578 9.99619C2.48459 11.3201 3.05013 13.0938 4.41256 13.6079C4.99095 13.8264 6.00634 13.775 6.55902 13.4922C7.33021 13.0938 7.75436 12.4511 7.81863 11.5514C7.89575 10.5746 7.80577 10.2532 7.29165 9.68771C6.57188 8.85226 5.49222 8.54379 4.5668 8.90367ZM6.09631 9.68771C6.98318 10.0605 7.42018 11.2301 6.98318 12.0655C6.30196 13.3637 4.61821 13.428 3.85988 12.1812C3.34575 11.3201 3.69278 10.2018 4.63106 9.73912C5.17089 9.45636 5.53078 9.45636 6.09631 9.68771Z" fill="#0A0A0A"/>
<path d="M4.46397 10.4975C4.25832 10.7031 4.27117 10.7288 4.52824 11.0116L4.79815 11.3072L4.52824 11.6028L4.24547 11.9113L4.50253 12.1427C4.75959 12.374 4.77245 12.374 5.04236 12.1041L5.32513 11.8213L5.62075 12.0912C5.92922 12.3869 6.25055 12.3483 6.39193 12.0013C6.44335 11.8599 6.36623 11.7056 6.16058 11.5514L5.85211 11.3201L6.16058 10.9987C6.41764 10.7288 6.44335 10.6388 6.30196 10.4718C6.09631 10.2275 5.92922 10.2275 5.64646 10.4846C5.42795 10.6774 5.38939 10.6774 5.09377 10.4846C4.69533 10.2275 4.73389 10.2275 4.46397 10.4975Z" fill="#0A0A0A"/>
<path d="M9.12964 10.9216H19.7977V10.1504H9.12964V10.9216Z" fill="#0A0A0A"/>
<path d="M9.12964 12.464H17.4842V11.6928H9.12964V12.464Z" fill="#0A0A0A"/>
</svg>
