<svg width="27" height="27" viewBox="0 0 27 27" fill="none" xmlns="http://www.w3.org/2000/svg">
<path d="M0.782843 26.7828C0.626633 26.9391 0.373367 26.9391 0.217157 26.7828C0.0609474 26.6266 0.0609474 26.3734 0.217157 26.2172L0.782843 26.7828ZM6.50053 19.9338C6.65674 19.7776 6.91 19.7776 7.06621 19.9338C7.22242 20.09 7.22242 20.3433 7.06621 20.4995L6.50053 19.9338ZM18.0698 11.1039H18.4698V11.9039H18.0698V11.1039ZM14.6395 11.9039H14.2395V11.1039H14.6395V11.9039ZM12.1703 8.73507L11.9376 8.40973L12.5882 7.94431L12.8209 8.26964L12.1703 8.73507ZM14.6395 11.4996L14.9648 11.2669L15.1311 11.4992L14.9652 11.7318L14.6395 11.4996ZM12.8213 14.7376L12.589 15.0633L11.9377 14.5987L12.17 14.2731L12.8213 14.7376ZM11.2093 14.0697V14.4697V14.0697ZM3.78876 12.0556C3.78876 18.2167 8.78331 23.2112 14.9444 23.2112V24.0112C8.34148 24.0112 2.98877 18.6585 2.98877 12.0556H3.78876ZM14.9444 23.2112C21.1055 23.2112 26.1 18.2167 26.1 12.0556H26.9C26.9 18.6585 21.5473 24.0112 14.9444 24.0112V23.2112ZM26.1 12.0556C26.1 5.89454 21.1055 0.9 14.9444 0.9V0.1C21.5473 0.1 26.9 5.45271 26.9 12.0556H26.1ZM14.9444 0.9C8.78331 0.9 3.78876 5.89454 3.78876 12.0556H2.98877C2.98877 5.45271 8.34148 0.1 14.9444 0.1V0.9ZM0.217157 26.2172L6.50053 19.9338L7.06621 20.4995L0.782843 26.7828L0.217157 26.2172ZM18.0698 11.9039H14.6395V11.1039H18.0698V11.9039ZM12.8209 8.26964L14.9648 11.2669L14.3142 11.7323L12.1703 8.73507L12.8209 8.26964ZM14.9652 11.7318L12.8213 14.7376L12.17 14.2731L14.3139 11.2673L14.9652 11.7318ZM9.89414 7.21514C9.89414 7.56394 10.0327 7.89845 10.2793 8.14509L9.71364 8.71077C9.31698 8.31411 9.09414 7.77611 9.09414 7.21514H9.89414ZM10.2793 8.14509C10.526 8.39173 10.8605 8.53029 11.2093 8.53029V9.33029C10.6483 9.33029 10.1103 9.10744 9.71364 8.71077L10.2793 8.14509ZM11.2093 8.53029C11.5581 8.53029 11.8926 8.39173 12.1392 8.14509L12.7049 8.71077C12.3082 9.10744 11.7702 9.33029 11.2093 9.33029V8.53029ZM12.1392 8.14509C12.3858 7.89845 12.5244 7.56394 12.5244 7.21514H13.3244C13.3244 7.77611 13.1015 8.31411 12.7049 8.71077L12.1392 8.14509ZM12.5244 7.21514C12.5244 6.86634 12.3858 6.53183 12.1392 6.28519L12.7049 5.71951C13.1015 6.11618 13.3244 6.65417 13.3244 7.21514H12.5244ZM12.1392 6.28519C11.8926 6.03856 11.5581 5.9 11.2093 5.9V5.1C11.7702 5.1 12.3082 5.32285 12.7049 5.71951L12.1392 6.28519ZM11.2093 5.9C10.8605 5.9 10.526 6.03856 10.2793 6.28519L9.71364 5.71951C10.1103 5.32285 10.6483 5.1 11.2093 5.1V5.9ZM10.2793 6.28519C10.0327 6.53183 9.89414 6.86634 9.89414 7.21514H9.09414C9.09414 6.65417 9.31698 6.11618 9.71364 5.71951L10.2793 6.28519ZM9.89414 15.7849C9.89414 16.1337 10.0327 16.4682 10.2793 16.7148L9.71364 17.2805C9.31698 16.8838 9.09414 16.3458 9.09414 15.7849H9.89414ZM10.2793 16.7148C10.526 16.9614 10.8605 17.1 11.2093 17.1V17.9C10.6483 17.9 10.1103 17.6772 9.71364 17.2805L10.2793 16.7148ZM11.2093 17.1C11.5581 17.1 11.8926 16.9614 12.1392 16.7148L12.7049 17.2805C12.3082 17.6772 11.7702 17.9 11.2093 17.9V17.1ZM12.1392 16.7148C12.3858 16.4682 12.5244 16.1337 12.5244 15.7849H13.3244C13.3244 16.3458 13.1015 16.8838 12.7049 17.2805L12.1392 16.7148ZM12.5244 15.7849C12.5244 15.4361 12.3858 15.1015 12.1392 14.8549L12.7049 14.2892C13.1015 14.6859 13.3244 15.2239 13.3244 15.7849H12.5244ZM12.1392 14.8549C11.8926 14.6083 11.5581 14.4697 11.2093 14.4697V13.6697C11.7702 13.6697 12.3082 13.8926 12.7049 14.2892L12.1392 14.8549ZM11.2093 14.4697C10.8605 14.4697 10.526 14.6083 10.2793 14.8549L9.71364 14.2892C10.1103 13.8926 10.6483 13.6697 11.2093 13.6697V14.4697ZM10.2793 14.8549C10.0327 15.1015 9.89414 15.4361 9.89414 15.7849H9.09414C9.09414 15.2239 9.31698 14.6859 9.71364 14.2892L10.2793 14.8549ZM18.4698 11.4996C18.4698 11.8484 18.6083 12.1829 18.8549 12.4295L18.2893 12.9952C17.8926 12.5985 17.6698 12.0605 17.6698 11.4996H18.4698ZM18.8549 12.4295C19.1016 12.6762 19.4361 12.8147 19.7849 12.8147V13.6147C19.2239 13.6147 18.6859 13.3919 18.2893 12.9952L18.8549 12.4295ZM19.7849 12.8147C20.1337 12.8147 20.4682 12.6762 20.7148 12.4295L21.2805 12.9952C20.8838 13.3919 20.3458 13.6147 19.7849 13.6147V12.8147ZM20.7148 12.4295C20.9614 12.1829 21.1 11.8484 21.1 11.4996H21.9C21.9 12.0605 21.6772 12.5985 21.2805 12.9952L20.7148 12.4295ZM21.1 11.4996C21.1 11.1508 20.9614 10.8163 20.7148 10.5696L21.2805 10.0039C21.6772 10.4006 21.9 10.9386 21.9 11.4996H21.1ZM20.7148 10.5696C20.4682 10.323 20.1337 10.1844 19.7849 10.1844V9.38443C20.3458 9.38443 20.8838 9.60727 21.2805 10.0039L20.7148 10.5696ZM19.7849 10.1844C19.4361 10.1844 19.1016 10.323 18.8549 10.5696L18.2893 10.0039C18.6859 9.60727 19.2239 9.38443 19.7849 9.38443V10.1844ZM18.8549 10.5696C18.6083 10.8163 18.4698 11.1508 18.4698 11.4996H17.6698C17.6698 10.9386 17.8926 10.4006 18.2893 10.0039L18.8549 10.5696Z" fill="black"/>
</svg>
