<svg width="27" height="27" viewBox="0 0 27 27" fill="none" xmlns="http://www.w3.org/2000/svg">
<path d="M2.30605 0.642126C2.0166 0.799548 1.74746 1.12963 1.67129 1.414C1.63574 1.55111 1.62051 2.36869 1.63066 3.81595C1.6459 6.27885 1.63574 6.20775 2.03691 6.59877C2.38223 6.93392 2.49395 6.94916 4.39824 6.94916H6.09434L6.21621 6.8222C6.36856 6.67494 6.37871 6.44642 6.24668 6.28392L6.1502 6.16205L4.4541 6.13666C3.26582 6.11634 2.73262 6.09095 2.65645 6.05033C2.43809 5.92338 2.42793 5.81166 2.44316 3.63822C2.4584 1.32767 2.44316 1.41908 2.83418 1.31244C3.09316 1.24135 11.4314 1.24642 11.6904 1.31752C11.8174 1.35306 11.9189 1.42416 11.985 1.5308C12.0764 1.68822 12.0814 1.7847 12.0713 3.76517L12.0561 5.84213L11.8885 5.98939L11.726 6.13666H9.64902C7.62793 6.13666 7.57207 6.14174 7.44004 6.2433C7.26231 6.38041 7.25215 6.69017 7.41973 6.84759C7.53145 6.95424 7.57207 6.95424 9.8166 6.94408L12.0967 6.939L13.2646 8.10697L13.1123 8.32533C12.6197 9.04134 12.4268 9.68627 12.4166 10.641L12.4115 11.3163L7.94785 13.896L7.5416 13.5152C6.69356 12.7179 5.35801 12.3015 4.21543 12.4792C3.29629 12.6214 2.52949 13.0023 1.8998 13.6269C0.244336 15.257 0.244336 17.8874 1.8998 19.5175C2.92051 20.523 4.35762 20.914 5.78457 20.5839C5.96738 20.5382 6.34824 20.391 6.62754 20.2538C7.51621 19.8222 8.2627 19.0046 8.62324 18.0804C8.82129 17.5624 8.88223 17.1968 8.88223 16.5519C8.88223 15.9222 8.7959 15.4753 8.58262 14.9675C8.49629 14.7644 8.44551 14.5816 8.46582 14.5613C8.52676 14.5054 12.6502 12.1288 12.6857 12.1288C12.701 12.1288 12.8025 12.2964 12.9092 12.5046C13.2443 13.1546 13.9502 13.8199 14.6408 14.1398L14.9252 14.2667V16.2726C14.9252 17.3745 14.915 18.2734 14.9049 18.2734C14.8947 18.2734 14.783 18.1312 14.6561 17.9585C14.3006 17.4609 13.7674 16.9785 13.3662 16.7906C13.0564 16.6433 12.9701 16.623 12.5639 16.623C11.985 16.623 11.6854 16.7093 11.3959 16.9632C11.0252 17.2933 10.9236 17.8417 11.1572 18.2988C11.1979 18.38 12.0053 19.5886 12.9498 20.9749C13.8943 22.3613 14.7525 23.646 14.849 23.8238C15.0725 24.23 15.2299 24.8394 15.2299 25.3015C15.2299 25.7433 15.2959 25.9921 15.4686 26.1953C15.7326 26.5152 15.5701 26.4999 19.1807 26.4999H22.4764L22.6439 26.3831C23.0197 26.1343 23.0197 26.114 23.0553 24.7835C23.0908 23.4785 23.0807 23.5191 23.4463 22.7421C23.7459 22.1023 23.8119 21.7367 23.8119 20.6906C23.8119 19.8628 23.8018 19.7867 23.7104 19.6953C23.6037 19.5886 23.36 19.5632 23.2025 19.6445C23.0451 19.7257 22.9994 19.9847 22.9994 20.7566C22.9994 21.6249 22.9436 21.8839 22.6186 22.5898C22.4967 22.8538 22.3697 23.1636 22.3393 23.2753C22.3037 23.387 22.2682 23.966 22.2529 24.5703C22.2326 25.2964 22.2072 25.6722 22.1666 25.6976C22.1361 25.7179 20.7854 25.7382 19.1604 25.7382C16.8803 25.7382 16.1947 25.723 16.1338 25.6722C16.0729 25.6265 16.0475 25.4792 16.0271 25.0781C15.9967 24.4941 15.8799 24.037 15.626 23.5292C15.4533 23.1839 15.3061 22.9605 13.3256 20.0507C12.5385 18.8929 11.8783 17.9027 11.8631 17.8519C11.7818 17.6285 12.0916 17.4101 12.4775 17.4101C12.9803 17.4101 13.4932 17.7656 14.0162 18.4917C14.5342 19.2027 14.783 19.3855 15.1486 19.3195C15.3467 19.2839 15.4939 19.1367 15.6209 18.8574C15.7072 18.6695 15.7123 18.3597 15.7377 14.5054L15.7631 10.3515L15.9205 10.1941C16.1287 9.99095 16.408 9.95033 16.6416 10.0976C16.9666 10.2956 16.9564 10.2042 16.9564 13.957C16.9564 16.0847 16.9768 17.3999 17.0072 17.4609C17.0732 17.5878 17.3373 17.6691 17.4846 17.6132C17.7639 17.5066 17.7689 17.4761 17.7689 15.6581C17.7689 14.4292 17.7893 13.9519 17.835 13.8605C18.0635 13.4136 18.7186 13.439 18.9064 13.9062C18.9775 14.0839 18.9877 14.3785 18.9877 16.0085C18.9877 17.7554 18.9928 17.9179 19.0791 18.0195C19.2162 18.1921 19.526 18.182 19.6783 17.9992L19.8002 17.862V14.7695L19.9373 14.6171C20.1252 14.414 20.3385 14.3581 20.5822 14.4394C20.9936 14.5816 21.0189 14.7035 21.0189 16.755C21.0189 18.4105 21.024 18.4613 21.1205 18.5527C21.2678 18.6847 21.5522 18.6796 21.6943 18.5374C21.801 18.4257 21.8061 18.3851 21.8314 17.0089L21.8568 15.5921L21.9787 15.4601C22.2275 15.196 22.6084 15.2011 22.8623 15.4804L22.9994 15.6328V16.9226C22.9994 18.248 23.0299 18.4867 23.2025 18.5781C23.365 18.6644 23.5834 18.6339 23.7002 18.512C23.8119 18.3953 23.8119 18.3648 23.8119 16.948C23.8119 15.5413 23.8068 15.5007 23.69 15.2519C23.3752 14.5663 22.6389 14.287 21.8314 14.541C21.7604 14.5613 21.7248 14.5308 21.6791 14.3937C21.6029 14.155 21.2627 13.8199 20.9834 13.6929C20.7295 13.5812 20.176 13.5558 19.9373 13.6472C19.7494 13.7183 19.6986 13.7183 19.6986 13.637C19.6986 13.6015 19.6326 13.4644 19.5463 13.3324L19.3939 13.0937L19.6428 12.7179C19.9221 12.2913 20.1252 11.7734 20.2115 11.291L20.2674 10.9609H22.2783L22.3646 11.2097C22.5221 11.687 22.9689 12.1339 23.4666 12.3117C23.8018 12.4335 24.3857 12.4132 24.7514 12.2761C25.1322 12.1339 25.5385 11.7581 25.7264 11.3722C25.8533 11.1183 25.8686 11.032 25.8686 10.58C25.8686 10.1331 25.8533 10.0417 25.7314 9.79291C25.2896 8.89916 24.2537 8.51322 23.3244 8.90423C22.8979 9.08197 22.451 9.57963 22.3342 10.0062L22.2834 10.1992H20.2674L20.2064 9.85384C20.1201 9.3765 19.8916 8.80775 19.6326 8.41166L19.4092 8.0765L21.9686 5.51713L22.2428 5.72533C23.2279 6.47181 24.7006 6.36517 25.5842 5.48158C26.8283 4.23236 26.4932 2.1097 24.9189 1.34291C23.4768 0.637048 21.8111 1.34291 21.2932 2.88666C21.151 3.30814 21.1662 4.02416 21.3287 4.49642L21.4557 4.86205L20.1354 6.18236L18.81 7.49759L18.485 7.27416C17.2357 6.42611 15.3771 6.44134 14.133 7.3097L13.8436 7.51791L12.6807 6.35502L12.7721 6.18236C12.8635 6.02494 12.8686 5.83705 12.8838 3.83627C12.899 1.42924 12.8889 1.30736 12.5893 0.946814C12.508 0.845252 12.3201 0.703064 12.1729 0.63197L11.9088 0.499939H2.55996L2.30605 0.642126ZM24.5127 2.05385C25.4928 2.53119 25.8229 3.71439 25.2287 4.60814C24.8682 5.14642 24.2029 5.4765 23.6139 5.40541C22.4053 5.26322 21.6639 3.99877 22.1666 2.93744C22.4104 2.42963 22.8572 2.04877 23.3752 1.91674C23.6697 1.84056 24.2131 1.90658 24.5127 2.05385ZM17.2611 7.59916C18.6271 8.0765 19.4447 9.19877 19.4447 10.58C19.4447 11.2859 19.2162 11.946 18.7896 12.4894C18.6119 12.7179 18.5967 12.723 18.3275 12.7281C18.1701 12.7281 17.9873 12.7535 17.9111 12.7839L17.7791 12.8347L17.7588 11.555C17.7436 10.3363 17.7385 10.2652 17.6217 10.0062C17.1189 8.889 15.4533 8.93978 15.0268 10.0824C14.9354 10.3312 14.9252 10.4734 14.9252 11.8546V13.3527L14.7119 13.2359C14.59 13.1699 14.3361 12.9566 14.1381 12.7636C13.5439 12.1695 13.2393 11.4433 13.2291 10.6054C13.2291 10.0671 13.3053 9.72689 13.5592 9.20892C13.9756 8.3558 14.7373 7.74134 15.6615 7.52806C16.0779 7.43158 16.8904 7.46713 17.2611 7.59916ZM24.5279 9.67103C24.6904 9.75228 24.9697 10.062 25.0357 10.2347C25.0967 10.3972 25.0967 10.7679 25.0307 10.9304C25.0053 11.0015 24.8986 11.1488 24.7971 11.2605C24.2588 11.8597 23.3092 11.6007 23.0959 10.7984C22.8826 10.0062 23.7916 9.29017 24.5279 9.67103ZM5.41895 13.3273C5.63223 13.3679 6.00293 13.4999 6.2416 13.6117C6.59707 13.7792 6.74941 13.896 7.10488 14.2566C7.78535 14.9421 8.06973 15.6226 8.06973 16.5722C8.06973 17.5218 7.78535 18.2023 7.10488 18.8878C6.74941 19.2433 6.58691 19.3652 6.2416 19.5328C5.40371 19.939 4.56582 19.9898 3.72285 19.7003C2.72754 19.3601 1.99629 18.6187 1.64082 17.5878C1.51387 17.2324 1.49863 17.1054 1.49863 16.5722C1.49863 16.039 1.51387 15.912 1.64082 15.5566C1.93027 14.7136 2.49395 14.0433 3.23027 13.6624C3.99199 13.2663 4.64199 13.1699 5.41895 13.3273Z" fill="#0A0A0A"/>
<path d="M4.25605 14.6882C3.73301 14.8253 3.24551 15.2519 3.00176 15.7749C2.87988 16.0288 2.86465 16.1304 2.86465 16.5722C2.86465 17.0445 2.8748 17.1054 3.02715 17.4152C3.74316 18.8675 5.79473 18.8929 6.5209 17.466C6.97285 16.5722 6.67324 15.455 5.84551 14.932C5.38848 14.6374 4.7791 14.546 4.25605 14.6882ZM5.28184 15.5718C6.12988 16.0085 6.11973 17.1613 5.2666 17.5828C4.83496 17.796 4.40332 17.7402 4.04785 17.4203C3.51973 16.9429 3.51973 16.171 4.04785 15.7292C4.44395 15.3992 4.8502 15.3433 5.28184 15.5718Z" fill="#0A0A0A"/>
<path d="M3.33184 2.43978C3.1084 2.61244 3.13379 3.02377 3.37754 3.13549C3.45371 3.16596 3.78379 3.19135 4.17988 3.19135C4.78926 3.19135 4.87051 3.18119 4.99238 3.08471C5.09395 3.00346 5.12441 2.93744 5.12441 2.7851C5.12441 2.63275 5.09395 2.56674 4.99238 2.48549C4.87051 2.389 4.78926 2.37885 4.13926 2.37885C3.6416 2.37885 3.39277 2.39916 3.33184 2.43978Z" fill="#0A0A0A"/>
<path d="M6.41934 2.5058C6.33809 2.58197 6.29238 2.68861 6.29238 2.7851C6.29238 2.88158 6.33809 2.98822 6.41934 3.06439L6.54121 3.19135H10.817L10.9389 3.06439C11.1166 2.89174 11.1115 2.62767 10.9338 2.48549C10.8018 2.38392 10.7459 2.37885 8.66895 2.37885H6.54121L6.41934 2.5058Z" fill="#0A0A0A"/>
<path d="M3.33184 4.26791C3.20996 4.36439 3.13887 4.59291 3.19473 4.7351C3.30137 5.01947 3.29121 5.01947 5.54082 5.01947C6.96777 5.01947 7.64824 5.00424 7.73457 4.96361C7.89199 4.89252 7.9834 4.67416 7.9377 4.49135C7.8666 4.20697 7.88184 4.20697 5.55606 4.20697C3.9209 4.20697 3.39785 4.22221 3.33184 4.26791Z" fill="#0A0A0A"/>
<path d="M9.2834 4.25775C9.14121 4.34408 9.06504 4.59291 9.13105 4.76049C9.22754 4.97885 9.3748 5.01947 10.1314 5.01947C10.7916 5.01947 10.8221 5.01439 10.9389 4.89252C11.1064 4.73002 11.1115 4.47103 10.949 4.31869C10.8373 4.21205 10.7814 4.20697 10.0959 4.20697C9.69473 4.20697 9.3291 4.23236 9.2834 4.25775Z" fill="#0A0A0A"/>
</svg>
