<svg width="66" height="23" viewBox="0 0 66 23" fill="none" xmlns="http://www.w3.org/2000/svg">
<path d="M4.75 14.9492V23H0.25V0.5H4.75V8.55078L16 0.5H22.75L7 11.75L22.75 23H16L4.75 14.9492ZM38.0177 23L30.5997 9.5H38.4747C39.1075 9.5 39.6348 9.28906 40.0567 8.86719C40.502 8.42188 40.7247 7.88281 40.7247 7.25C40.7247 6.61719 40.502 6.08984 40.0567 5.66797C39.6348 5.22266 39.1075 5 38.4747 5H27.2247V23H22.7247V0.5H38.4747C40.3497 0.5 41.9434 1.15625 43.2559 2.46875C44.5684 3.78125 45.2247 5.375 45.2247 7.25C45.2247 9.125 44.5684 10.7188 43.2559 12.0312C41.9434 13.3438 40.3497 14 38.4747 14H37.4903L42.4825 23H38.0177ZM51.633 11.75L43.1955 0.5H48.8205L54.4455 7.98828L60.0705 0.5H65.6955L57.258 11.75L65.6955 23H60.0705L54.4455 15.5117L48.8205 23H43.1955L51.633 11.75Z" fill="#FCFCFC"/>
</svg>
